<?xml version="1.0" encoding="iso-8859-1"?>
<!-- Generator: Adobe Illustrator 16.0.0, SVG Export Plug-In . SVG Version: 6.00 Build 0)  -->
<!DOCTYPE svg PUBLIC "-//W3C//DTD SVG 1.1//EN" "http://www.w3.org/Graphics/SVG/1.1/DTD/svg11.dtd">
<svg version="1.1" id="&#x56FE;&#x5C42;_1" xmlns="http://www.w3.org/2000/svg" xmlns:xlink="http://www.w3.org/1999/xlink" x="0px"
	 y="0px" width="80px" height="80px" viewBox="0 0 80 80" style="enable-background:new 0 0 80 80;" xml:space="preserve">
<image style="display:none;overflow:visible;" width="317" height="303" xlink:href="&#x5FAE;&#x4FE1;&#x622A;&#x56FE;_20190702160532.png"  transform="matrix(0.2227 0.0341 -0.0341 0.2227 9.8638 0.8652)">
</image>
<g>
	<circle style="fill:#005979;stroke:#231815;stroke-miterlimit:10;" cx="39.792" cy="38.632" r="29.833"/>
	<g>
		<g>
			<g>
				<path style="opacity:0.2063;fill:#FFFFFF;" d="M26.449,21.904c0.262,0.846,0.531,1.688,0.807,2.53
					c0.881,1.805,1.926,3.512,3.132,5.119c2.994,4.416,5.543,9.07,8.689,13.379c0.701,0.959,2.288-3.102,1.83-3.803
					c-1.78-2.73-3.473-5.49-5.104-8.313c-2.181-3.772-4.976-6.762-6.291-11.042C29.321,19.148,26.124,20.886,26.449,21.904z"/>
				<path style="opacity:0.2063;fill:#FFFFFF;" d="M23.857,19.626c0.389,1.854,1.123,3.562,2.197,5.125
					c1.114,1.677,2.257,3.334,3.428,4.969c1.149,1.746,2.218,3.539,3.205,5.379c1.132,2.033,2.423,3.961,3.873,5.781
					c0.62,0.848,0.792-1.334,0.789-1.283c0.048-1.092,0.263-2.728-0.309-3.725c-2.087-3.639-4.227-7.223-6.053-11.003
					c-0.822-1.573-1.656-3.141-2.5-4.7c-0.801-1.518-1.304-3.127-1.504-4.83c-0.213-1.014-1.337,0.703-1.372,0.755
					C25.174,16.76,23.577,18.722,23.857,19.626z"/>
				<path style="opacity:0.2063;fill:#FFFFFF;" d="M23.401,16.468c0.478,1.848,1.264,3.555,2.361,5.121
					c1.159,1.684,2.34,3.35,3.544,5c1.211,1.716,2.303,3.506,3.278,5.368c1.128,2.065,2.448,3.999,3.961,5.8
					c0.339,0.448,1.425,0.04,0.964-0.572c-2.682-3.559-4.735-7.416-7.175-11.131c-1.181-1.629-2.338-3.274-3.47-4.938
					c-1.083-1.567-1.863-3.274-2.339-5.116C24.296,15.344,23.141,15.729,23.401,16.468z"/>
				<path style="opacity:0.2063;fill:#FFFFFF;" d="M26.651,18.446c0.39,1.833,1.102,3.533,2.136,5.1
					c0.536,0.855,1.089,1.701,1.659,2.534c2.954,4.487,5.571,9.181,8.709,13.544c0.529,0.738,0.98-0.711,1.048-0.939
					c0.22-0.728,0.991-2.602,0.521-3.354c-2.19-3.498-4.277-7.041-6.328-10.623c-0.93-1.486-1.86-2.97-2.792-4.455
					c-0.898-1.443-1.491-3.002-1.778-4.677C29.51,14.411,26.409,17.657,26.651,18.446z"/>
				<path style="opacity:0.2063;fill:#FFFFFF;" d="M25.473,16.345c0.545,1.783,1.393,3.413,2.542,4.886
					c1.297,1.567,2.506,3.201,3.626,4.899c1.188,1.75,2.278,3.557,3.272,5.422c1.128,2.066,2.45,4,3.967,5.801
					c0.229,0.301,1.406,0.362,0.997-0.174c-2.717-3.551-4.8-7.397-7.224-11.142c-1.12-1.671-2.323-3.28-3.607-4.827
					c-1.156-1.457-2.004-3.072-2.548-4.848C26.346,15.99,25.211,15.696,25.473,16.345z"/>
				<path style="opacity:0.2063;fill:#FFFFFF;" d="M21.916,18.285c0.139,1.021,0.443,1.976,0.915,2.862
					c0.822,1.732,1.792,3.379,2.912,4.938c2.961,4.571,5.633,9.324,8.791,13.766c0.22,0.311,0.797,0.15,0.875-0.201
					c0.118-0.537-0.132-1.395-0.425-1.846c-2.396-3.691-4.577-7.479-6.749-11.306c-1.059-1.663-2.061-3.358-3.006-5.089
					c-0.919-1.629-1.535-3.365-1.851-5.206c-0.101-0.397-0.585-0.627-0.869-0.224C22.183,16.442,21.746,17.724,21.916,18.285z"/>
			</g>
		</g>
	</g>
	<g>
		<g>
			<g>
				<path style="opacity:0.2063;fill:#FFFFFF;" d="M48.24,20.884c-0.457,2.755-1.225,5.111-2.213,7.717
					c-1.168,3.076-1.666,6.345-2.559,9.51c-0.314,1.111,2.555,0.246,2.744-0.457c0.873-3.238,1.346-6.522,2.656-9.606
					c1.102-2.595,1.887-5.058,2.404-7.824C51.498,19.032,48.359,20.17,48.24,20.884z"/>
				<path style="opacity:0.2063;fill:#FFFFFF;" d="M45.738,18.836c-0.432,2.773-1.195,5.112-2.189,7.731
					c-1.164,3.062-1.639,6.352-2.547,9.498c-0.308,1.07,1.676-0.369,1.57-0.288c0.818-0.633,2.623-1.733,2.889-2.833
					c0.295-1.217,0.588-2.434,0.883-3.65c0.107-2.102,0.625-4.088,1.557-5.959c1.035-2.588,1.605-5.215,2.002-7.958
					c0.156-1.077-1.584,0.456-1.535,0.413C47.607,16.484,45.912,17.722,45.738,18.836z"/>
				<path style="opacity:0.2063;fill:#FFFFFF;" d="M45.314,15.105c-0.428,2.694-1.164,4.995-2.123,7.548
					c-0.984,2.627-1.908,7.413-2.488,9.438c-0.291,1.011,1.058,0.857,1.306-0.023c0.666-2.348,1.9-7.588,2.465-9.45
					c0.299-0.813,0.598-1.624,0.896-2.437c0.643-1.636,1.037-3.328,1.182-5.08C46.684,14.261,45.453,14.251,45.314,15.105z"/>
				<path style="opacity:0.2063;fill:#FFFFFF;" d="M48.588,17.715c-0.443,2.763-1.203,5.118-2.189,7.731
					c-1.162,3.078-1.656,6.344-2.547,9.509c-0.246,0.875,1.234,0.106,1.311,0.06c0.668-0.406,2.115-1.121,2.328-1.97
					c0.307-1.218,0.613-2.437,0.92-3.653c0.129-2.096,0.662-4.074,1.6-5.936c1.047-2.578,1.689-5.141,2.133-7.877
					c0.143-0.885-1.205-0.059-1.32,0.021C50.195,16.032,48.727,16.863,48.588,17.715z"/>
				<path style="opacity:0.2063;fill:#FFFFFF;" d="M47.166,15.224c-0.389,2.633-1.078,4.877-1.988,7.373
					c-0.242,0.85-0.486,1.699-0.73,2.548c-0.408,2.332-0.984,4.622-1.729,6.869c-0.145,0.499,0.844,1.157,1.047,0.466
					c0.914-3.143,1.568-6.317,2.471-9.461c0.289-0.797,0.578-1.594,0.865-2.392c0.627-1.606,0.998-3.271,1.109-4.991
					C48.27,15.222,47.26,14.589,47.166,15.224z"/>
				<path style="opacity:0.2063;fill:#FFFFFF;" d="M43.875,17.382c-0.42,2.768-1.172,5.104-2.154,7.72
					c-1.15,3.062-1.622,6.349-2.527,9.491c-0.148,0.515,0.318,0.857,0.746,0.5c0.665-0.561,1.504-1.73,1.723-2.576
					c0.83-3.174,1.355-6.379,2.393-9.486c0.867-2.602,1.537-4.979,1.902-7.699c0.066-0.484-0.43-0.773-0.795-0.414
					C44.602,15.468,43.994,16.603,43.875,17.382z"/>
			</g>
		</g>
	</g>
	<g>
		<g>
			<g>
				<path style="opacity:0.2063;fill:#FFFFFF;" d="M50.379,43.835c5.957,0.205,11.85,0.043,17.807-0.09
					c1.018-0.023-0.67-1.326-0.604-1.283c-0.859-0.572-2.006-1.455-3.084-1.486c-5.779-0.162-11.523-0.17-17.295-0.514
					c-0.992-0.059,0.377,1.367,0.379,1.367C48.223,42.44,49.4,43.802,50.379,43.835z"/>
				<path style="opacity:0.2063;fill:#FFFFFF;" d="M47.434,41.812c5.809,0.217,11.559,0.084,17.369,0
					c0.439-0.006,0.869-0.32,0.453-0.775c-0.461-0.506-1.775-1.445-2.484-1.451c-5.926-0.055-11.811-0.02-17.729-0.324
					c-0.83-0.043,0.133,1.115,0.197,1.174C45.805,40.956,46.615,41.78,47.434,41.812z"/>
				<path style="opacity:0.2063;fill:#FFFFFF;" d="M48.561,38.851c5.867-0.014,11.686-0.393,17.549-0.575
					c0.443-0.014,1.104-0.988,0.402-0.964c-5.846,0.19-11.646,0.584-17.496,0.621C48.613,37.935,47.873,38.853,48.561,38.851z"/>
				<path style="opacity:0.2063;fill:#FFFFFF;" d="M49.885,40.669c5.926,0.219,11.789,0.078,17.715-0.021
					c1.02-0.018-0.313-1.436-0.404-1.537c-0.592-0.653-2.018-2.617-3.033-2.645c-5.672-0.142-11.313-0.121-16.98-0.434
					c-0.975-0.055,0.014,1.363,0.148,1.572c0.479,0.73,0.992,1.438,1.535,2.123C49.115,40.147,49.457,40.462,49.885,40.669z"/>
				<path style="opacity:0.2063;fill:#FFFFFF;" d="M50.572,38.318c6.016,0.122,11.951-0.108,17.969-0.299
					c0.811-0.024,0.744-1.194,0.021-1.168c-5.83,0.246-11.662,0.369-17.498,0.366C50.381,37.207,49.877,38.305,50.572,38.318z"/>
				<path style="opacity:0.2063;fill:#FFFFFF;" d="M46.553,41.421c5.857,0.08,11.656-0.197,17.51-0.404
					c0.541-0.018,0.756-1.145-0.012-1.117c-5.832,0.201-11.615,0.486-17.453,0.422C46.086,40.315,45.791,41.411,46.553,41.421z"/>
			</g>
		</g>
	</g>
	<g>
		<g>
			<g>
				<path style="opacity:0.2063;fill:#FFFFFF;" d="M42.246,45.995c2.604,2.414,3.031,5.98,4.158,9.156
					c1.141,3.209,2.545,6.484,5.055,8.85c0.902,0.852,2.018-3.609,1.436-4.176c-3.031-2.934-4.543-7.076-6.264-10.85
					c-0.688-1.51-1.396-2.975-2.152-4.455c-0.742-1.461-1.734-2.293-2.968-3.303c-0.795-0.648-0.452,1.422-0.458,1.391
					C41.26,43.601,41.452,45.259,42.246,45.995z"/>
				<path style="opacity:0.2063;fill:#FFFFFF;" d="M39.168,43.603c0.754,0.947,1.509,1.893,2.263,2.84
					c-0.27-0.533-0.539-1.066-0.808-1.6c1.623,3.807,2.691,7.842,4.521,11.549c1.021,2.068,2.057,3.939,3.762,5.508
					c0.729,0.668,0.66-1.234,0.656-1.299c-0.055-0.936,0.018-2.75-0.682-3.498c-2.23-2.389-3.592-5.344-5.025-8.242
					c-0.891-1.801-1.717-3.627-2.625-5.416c-0.724-1.43-1.676-2.32-2.916-3.285c-0.418-0.324-0.951-0.225-0.788,0.43
					C37.755,41.511,38.452,42.966,39.168,43.603z"/>
				<path style="opacity:0.2063;fill:#FFFFFF;" d="M40.002,41.108c1.586,1.887,2.631,4.012,3.135,6.371
					c0.639,2.154,1.168,4.119,2.188,6.125c0.984,1.939,2.096,3.691,3.654,5.205c0.355,0.346,1.434-0.086,0.895-0.604
					c-3.033-2.932-4.506-6.922-5.613-10.895c-0.279-1.002-0.83-3.279-1.357-4.26c-0.965-1.793-0.48-1.219-1.966-2.543
					C40.667,40.271,39.566,40.716,40.002,41.108z"/>
				<path style="opacity:0.2063;fill:#FFFFFF;" d="M42.031,42.644c2.688,2.434,3.209,5.924,4.395,9.162
					c1.174,3.207,2.586,6.455,5.066,8.855c0.838,0.811,1.832-3.861,1.205-4.504c-2.475-2.531-3.762-5.715-5.244-8.873
					c-0.992-2.115-1.9-4.244-2.957-6.332c-0.738-1.457-1.688-2.316-2.896-3.341c-0.788-0.669-0.548,1.399-0.547,1.407
					C41.186,39.97,41.248,41.935,42.031,42.644z"/>
				<path style="opacity:0.2063;fill:#FFFFFF;" d="M42.328,40.796c2.514,2.25,2.996,5.607,3.842,8.68
					c0.912,3.305,2.703,6.541,5.156,8.934c0.283,0.275,1.457,0.168,0.973-0.283c-2.48-2.316-4.027-5.602-5.025-8.805
					c-0.674-2.16-1.184-4.33-1.955-6.463c-0.549-1.516-1.033-1.727-2.16-2.715C42.822,39.851,41.779,40.304,42.328,40.796z"/>
				<path style="opacity:0.2063;fill:#FFFFFF;" d="M37.859,43.335c2.657,2.467,3.463,7.346,4.643,10.654
					c0.928,2.6,2.51,5.156,4.486,7.072c0.236,0.229,0.783,0.066,0.859-0.252c0.104-0.418-0.145-1.191-0.438-1.5
					c-2.113-2.238-3.598-5.086-4.648-7.969c-0.701-1.926-1.264-3.916-1.935-5.854c-0.529-1.527-1.264-2.188-2.386-3.211
					C37.88,41.763,37.264,42.784,37.859,43.335z"/>
			</g>
		</g>
	</g>
	<g>
		<g>
			<g>
				<path style="opacity:0.2063;fill:#FFFFFF;" d="M36.371,45.083c-1.658,5.854-3.81,11.381-6.156,16.99
					c-0.44,1.051,2.255,0.609,2.532-0.043c2.368-5.588,4.579-11.102,6.285-16.928C39.372,43.935,36.554,44.438,36.371,45.083z"/>
				<path style="opacity:0.2063;fill:#FFFFFF;" d="M33.955,42.979c-1.652,5.863-3.812,11.4-6.155,17.02
					c-0.424,1.014,1.672-0.088,1.596-0.045c0.894-0.494,2.871-1.316,3.287-2.361c2.247-5.621,4.416-11.221,6.161-17.02
					c0.305-1.012-1.563,0.025-1.597,0.045C36.455,41.056,34.236,41.981,33.955,42.979z"/>
				<path style="opacity:0.2063;fill:#FFFFFF;" d="M33.601,39.2c-1.683,5.787-3.719,11.441-6.105,16.967
					c-0.123,0.297,0.45,0.65,0.69,0.572c0.432-0.139,0.749-0.705,0.907-1.092c2.277-5.592,4.37-11.105,6.022-16.91
					c0.083-0.291-0.462-0.632-0.703-0.559C34.027,38.296,33.701,38.841,33.601,39.2z"/>
				<path style="opacity:0.2063;fill:#FFFFFF;" d="M36.806,41.944c-1.658,5.85-3.811,11.385-6.142,16.994
					c-0.346,0.836,1.202,0.256,1.283,0.217c0.723-0.33,2.176-0.854,2.507-1.668c2.276-5.609,4.436-11.178,6.149-16.986
					c0.245-0.834-1.11-0.299-1.285-0.221C38.679,40.571,37.03,41.155,36.806,41.944z"/>
				<path style="opacity:0.2063;fill:#FFFFFF;" d="M35.282,39.165c-1.502,5.801-3.531,11.186-5.832,16.709
					c-0.219,0.527,0.746,1.215,1.036,0.518c1.161-2.73,2.279-5.48,3.355-8.248c0.999-2.764,1.816-5.582,2.447-8.455
					C36.405,39.233,35.452,38.505,35.282,39.165z"/>
				<path style="opacity:0.2063;fill:#FFFFFF;" d="M32.157,41.478c-1.648,5.867-3.804,11.412-6.14,17.033
					c-0.208,0.502,0.154,0.93,0.666,0.602c0.756-0.48,1.86-1.582,2.195-2.424c2.229-5.611,4.34-11.182,6.005-16.988
					c0.137-0.477-0.156-0.928-0.678-0.588C33.537,39.55,32.378,40.694,32.157,41.478z"/>
			</g>
		</g>
	</g>
	<g>
		<g>
			<g>
				<path style="opacity:0.2063;fill:#FFFFFF;" d="M22.75,44.167c3.113,0.035,6.199-0.229,9.261-0.793
					c3.106-0.545,6.182-1.227,9.227-2.043c0.936-0.23-0.697-1.164-0.716-1.174c-0.825-0.41-2.143-1.211-3.112-1.018
					c-2.998,0.656-6.018,1.182-9.062,1.578c-2.981,0.395-5.973,0.52-8.976,0.375c-0.992-0.006,0.483,1.334,0.472,1.324
					C20.532,42.974,21.777,44.2,22.75,44.167z"/>
				<path style="opacity:0.2063;fill:#FFFFFF;" d="M19.814,42.183c3.084,0.045,6.144-0.205,9.182-0.748
					c3.104-0.535,6.178-1.203,9.221-2.004c0.758-0.184-0.267-1.002-0.4-1.079c-0.627-0.364-1.539-0.946-2.295-0.784
					c-1.479,0.314-2.957,0.631-4.435,0.947c-4.519,0.953-9.098,1.383-13.733,1.291c-0.816,0.008,0.166,1.088,0.242,1.152
					C18.173,41.435,19.016,42.21,19.814,42.183z"/>
				<path style="opacity:0.2063;fill:#FFFFFF;" d="M20.973,39.153c6.207-0.559,12.216-1.842,18.266-3.323
					c0.469-0.115,0.958-1.185,0.302-1.021c-6.008,1.503-11.988,2.806-18.157,3.401C20.975,38.249,20.293,39.214,20.973,39.153z"/>
				<path style="opacity:0.2063;fill:#FFFFFF;" d="M22.237,41.034c3.094,0.043,6.165-0.205,9.212-0.744
					c3.101-0.529,6.172-1.195,9.214-1.995c0.944-0.228-0.342-1.302-0.557-1.497c-0.66-0.598-1.345-1.162-2.055-1.695
					c-0.354-0.348-0.768-0.57-1.242-0.668c-2.917,0.689-5.859,1.247-8.825,1.676c-2.904,0.414-5.82,0.559-8.75,0.43
					c-0.983,0.002,0.104,1.373,0.249,1.568c0.526,0.705,1.083,1.385,1.672,2.039C21.433,40.556,21.792,40.851,22.237,41.034z"/>
				<path style="opacity:0.2063;fill:#FFFFFF;" d="M23.135,38.577c3.113-0.017,6.196-0.316,9.254-0.902
					c3.081-0.549,6.13-1.233,9.15-2.051c0.84-0.209,0.428-1.432-0.263-1.252c-2.941,0.836-5.916,1.538-8.92,2.108
					c-3.04,0.603-6.108,0.916-9.206,0.942C22.349,37.466,22.41,38.613,23.135,38.577z"/>
				<path style="opacity:0.2063;fill:#FFFFFF;" d="M18.963,41.731c6.248-0.41,12.164-1.621,18.226-3.16
					c0.479-0.121,0.681-1.26-0.043-1.079c-6.039,1.521-11.948,2.722-18.167,3.149C18.483,40.677,18.208,41.782,18.963,41.731z"/>
			</g>
		</g>
	</g>
	<g>
		<g>
			<g>
				<path style="opacity:0.2063;fill:#FFFFFF;" d="M19.52,45.241c2.964,0.197,5.896,0.479,8.872,0.516
					c2.196,0.029,4.213-0.359,6.309-0.953c1.484-0.418,1.819-1.193,2.627-2.309c0.766-1.053-3.261-1.396-3.864-0.969
					c-2.393,1.691-5.856,1.441-8.708,1.447c-2.907,0.01-5.808-0.447-8.705-0.646c-1.01-0.07,0.602,1.363,0.518,1.299
					C17.377,44.231,18.467,45.169,19.52,45.241z"/>
				<path style="opacity:0.2063;fill:#FFFFFF;" d="M16.248,43.272c3.038,0.203,6.08,0.652,9.132,0.525
					c1.758-0.072,2.571-0.141,4.347-0.377c2.104-0.277,3.341-1.08,4.653-2.643c0.807-0.961-2.304-1.49-2.837-1.068
					c-2.966,2.344-7.085,1.895-10.705,1.791c-2.141-0.061-4.275-0.377-6.411-0.516c-0.438-0.027-0.862,0.289-0.497,0.75
					C14.345,42.253,15.563,43.226,16.248,43.272z"/>
				<path style="opacity:0.2063;fill:#FFFFFF;" d="M17.764,40.21c3.604-0.025,7.204,0.07,10.806-0.076
					c2.307-0.094,4.023-0.859,5.962-2.023c0.67-0.4,1.08-1.169,1.532-1.748c0.177-0.225,0.017-0.482-0.213-0.588
					c-0.283-0.13-0.554,0.26-0.698,0.44c-2.775,3.478-6.936,3.06-10.777,3.009c-2.068-0.029-4.156,0-6.226,0.031
					C17.737,39.261,17.059,40.216,17.764,40.21z"/>
				<path style="opacity:0.2063;fill:#FFFFFF;" d="M18.995,42.124c2.947,0.191,5.863,0.48,8.82,0.525
					c2.178,0.033,4.174-0.311,6.256-0.895c1.499-0.42,2.049-1.248,2.955-2.385c0.368-0.463-4.295-3.316-5.151-2.448
					c-1.837,1.858-5.077,1.481-7.444,1.499c-2.872,0.021-5.733-0.477-8.588-0.706c-1.03-0.081,0.238,1.483,0.3,1.563
					C16.671,39.948,18.003,42.062,18.995,42.124z"/>
				<path style="opacity:0.2063;fill:#FFFFFF;" d="M19.691,39.622c3.794,0.193,7.512,0.49,11.313,0.285
					c1.268-0.068,3.078-0.33,4.191-1.037c1.547-0.984,1.463-0.883,2.541-2.363c0.475-0.652-0.754-1.547-1.183-0.869
					c-2.533,4.002-8.146,3.293-11.952,3.109c-1.512-0.072-3.018-0.243-4.527-0.326C19.303,38.378,18.97,39.585,19.691,39.622z"/>
				<path style="opacity:0.2063;fill:#FFFFFF;" d="M15.6,42.796c2.912,0.09,5.794,0.285,8.713,0.254
					c2.273-0.023,4.204-0.396,6.321-1.172c1.532-0.561,1.96-1.311,2.945-2.49c0.35-0.418,0.163-1.324-0.327-0.746
					c-2.453,2.896-5.471,3.078-8.95,3.293c-2.796,0.172-5.602-0.148-8.395-0.229C15.439,41.692,14.922,42.774,15.6,42.796z"/>
			</g>
		</g>
	</g>
	<g>
		<g>
			<g>
				<path style="opacity:0.2063;fill:#FFFFFF;" d="M44.371,23.351c0.004,2.387-0.096,4.768-0.295,7.144
					c-0.227,3.615-1.254,6.81-2.585,10.138c-0.271,0.676,0.878,0.414,1.046,0.342c0.627-0.273,1.518-0.635,1.801-1.299
					c1.121-2.137,1.869-4.398,2.244-6.783c0.809-3.332,0.768-6.981,0.885-10.385C47.51,21.233,44.385,22.679,44.371,23.351z"/>
				<path style="opacity:0.2063;fill:#FFFFFF;" d="M41.861,21.315c0.01,2.4-0.086,4.798-0.289,7.189
					c-0.246,3.352-1.046,6.579-2.398,9.686c-0.231,0.602-0.051,1.131,0.662,0.605c1.175-0.862,2.75-2.401,3.23-3.801
					c1.066-3.108,1.18-3.509,1.869-6.859c0.693-3.371,0.709-7.059,0.883-10.486c0.057-1.071-1.52,0.504-1.506,0.49
					C43.656,18.808,41.881,20.259,41.861,21.315z"/>
				<path style="opacity:0.2063;fill:#FFFFFF;" d="M41.4,17.886c0.098,3.484-0.137,6.94-0.704,10.367
					c-0.395,2.26-1.062,4.432-2.001,6.523c-0.139,0.369,0.156,0.645,0.505,0.721c0.401,0.086,0.669-0.48,0.778-0.775
					c1.227-3.35,1.938-6.39,2.398-9.926c0.24-1.856,0.24-5.52,0.273-7.375c0.004-0.256-0.602-0.484-0.799-0.41
					C41.544,17.125,41.404,17.6,41.4,17.886z"/>
				<path style="opacity:0.2063;fill:#FFFFFF;" d="M44.701,20.18c-0.006,2.39-0.113,4.772-0.324,7.151
					c-0.248,3.383-1.049,6.645-2.406,9.783c-0.18,0.467-0.059,0.998,0.588,0.68c0.975-0.48,2.367-1.589,2.754-2.625
					c1.283-3.425,1.191-3.096,2.006-6.827c0.732-3.363,0.719-7.035,0.865-10.458c0.037-0.873-1.152-0.051-1.322,0.078
					C46.313,18.374,44.721,19.366,44.701,20.18z"/>
				<path style="opacity:0.2063;fill:#FFFFFF;" d="M43.32,17.747c-0.141,3.411-0.281,6.822-0.42,10.233
					c-0.432,2.313-1.139,4.54-2.121,6.68c-0.172,0.442,0.802,1.078,1.054,0.424c0.426-1.101,0.85-2.2,1.273-3.302
					c0.691-2.266,1.152-4.575,1.383-6.933c0.211-1.421-0.061-5.283-0.119-6.718C44.355,17.724,43.299,17.138,43.32,17.747z"/>
				<path style="opacity:0.2063;fill:#FFFFFF;" d="M39.981,19.88c0.011,2.396-0.083,4.791-0.282,7.182
					c-0.23,3.293-0.991,6.474-2.287,9.538c-0.094,0.253-0.519,1.349,0.266,1.19c0.86-0.176,1.502-2.113,1.74-2.82
					c0.924-2.741,1.178-3.726,1.785-6.675c0.695-3.373,0.617-7.067,0.715-10.493c0.016-0.463-0.46-0.753-0.814-0.373
					C40.618,17.948,39.994,19.155,39.981,19.88z"/>
			</g>
		</g>
	</g>
	<g>
		<g>
			<g>
				<path style="opacity:0.2063;fill:#FFFFFF;" d="M27.155,25.059c2.488,2.271,3.999,4.928,5.659,7.833
					c1.28,2.238,3.03,4.32,4.115,6.652c-0.031-0.391-0.063-0.779-0.093-1.169c-0.053,0.489-0.105,0.978-0.158,1.466
					c-0.072,0.66,0.62,0.701,0.873,0.203c0.46-0.902,0.915-2.5,0.813-3.517c-0.16-1.604-0.982-2.544-1.895-3.844
					c-2.975-4.235-5.512-8.979-9.414-12.432c-0.739-0.655-0.641,1.243-0.637,1.311C26.485,22.435,26.431,24.397,27.155,25.059z"/>
				<path style="opacity:0.2063;fill:#FFFFFF;" d="M24.154,22.624c2.521,2.268,4.069,4.941,5.784,7.841
					c1.302,2.202,3.055,4.265,4.186,6.566c-0.188-1.04-0.378-2.079-0.566-3.118c0.057,0.633,0.113,1.265,0.17,1.896
					c0.05,0.551,0.021,1.915,0.512,2.379c0.703,0.664,0.818-1.291,0.692-1.295c0.223-1.975-0.199-3.666-1.266-5.074
					c-0.843-0.98-1.635-1.999-2.378-3.059c-2.515-3.4-4.458-6.98-7.716-9.75c-0.396-0.337-0.94-0.361-0.824,0.354
					C22.892,20.261,23.464,22.005,24.154,22.624z"/>
				<path style="opacity:0.2063;fill:#FFFFFF;" d="M24.843,20.194c2.421,2.095,3.878,4.543,5.445,7.314
					c0.791,1.467,1.646,2.896,2.566,4.287c0.584,0.924,1.377,1.772,1.286,2.969c-0.043,0.559,1.102,0.566,1.135,0.008
					c0.086-1.41-0.646-2.227-1.384-3.418c-2.504-4.041-4.414-8.571-8.079-11.706C25.531,19.407,24.403,19.813,24.843,20.194z"/>
				<path style="opacity:0.2063;fill:#FFFFFF;" d="M27.015,21.695c2.502,2.269,4.051,4.927,5.752,7.821
					c1.312,2.23,3.049,4.322,4.166,6.649c-0.047-0.405-0.093-0.812-0.14-1.218c-0.025,0.516-0.05,1.033-0.076,1.547
					c-0.033,0.693,0.649,0.708,0.884,0.156c0.418-0.975,0.846-2.719,0.669-3.779c-0.259-1.537-1.042-2.508-1.927-3.771
					c-2.955-4.222-5.427-8.915-9.292-12.38c-0.743-0.667-0.677,1.246-0.674,1.333C26.417,18.912,26.29,21.038,27.015,21.695z"/>
				<path style="opacity:0.2063;fill:#FFFFFF;" d="M27.181,19.89c3.128,2.656,4.791,5.987,6.767,9.474
					c0.714,1.259,2.699,3.397,2.583,5.05c-0.032,0.446,1.074,0.67,1.11,0.237c0.167-2.021-1.577-3.847-2.594-5.473
					c-1.379-2.208-2.504-4.528-3.941-6.707c-1.083-1.642-1.604-1.944-3.055-3.153C27.724,19.044,26.63,19.421,27.181,19.89z"/>
				<path style="opacity:0.2063;fill:#FFFFFF;" d="M22.696,22.295c2.98,2.726,4.779,6.329,6.829,9.769
					c0.829,1.393,1.991,2.695,2.716,4.16c-0.103-0.403-0.205-0.808-0.306-1.212c-0.001,0.321-0.001,0.643-0.001,0.965
					c-0.001,0.354,0.14,0.978,0.386,1.253c0.2,0.225,0.836,0.146,0.874-0.205c0.191-1.779-0.634-2.734-1.642-4.146
					c-2.786-3.913-4.632-8.389-8.227-11.648C22.694,20.655,22.063,21.715,22.696,22.295z"/>
			</g>
		</g>
	</g>
	<g>
		<g>
			<g>
				<path style="opacity:0.2063;fill:#FFFFFF;" d="M25.052,44.528c2.269,0.197,4.524,0.484,6.788,0.738
					c1.668,0.184,3.338,0.217,5.012,0.098c1.521-0.086,2.937-0.514,4.246-1.287c0.43-0.189,0.127-0.635-0.125-0.793
					c-0.822-0.514-2.566-1.283-3.55-1.193c-2.223,0.203-4.332,0.408-6.569,0.365c-3.048-0.061-6.118-0.74-9.149-1.053
					c-1.011-0.104,0.53,1.395,0.457,1.334C22.92,43.368,24.011,44.437,25.052,44.528z"/>
				<path style="opacity:0.2063;fill:#FFFFFF;" d="M21.78,42.526c3.093,0.281,6.156,0.715,9.258,0.918
					c2.501,0.162,4.631-0.266,6.929-1.168c0.347-0.139,0.169-0.615-0.031-0.766c-0.556-0.418-1.943-1.02-2.65-0.916
					c-2.874,0.504-5.779,0.613-8.713,0.326c-2.192-0.16-4.381-0.561-6.57-0.773c-0.439-0.043-0.882,0.25-0.523,0.73
					C19.878,41.411,21.092,42.464,21.78,42.526z"/>
				<path style="opacity:0.2063;fill:#FFFFFF;" d="M23.268,39.519c3,0.061,6,0.209,8.997,0.373c2.566,0.137,4.557-0.285,6.839-1.273
					c0.239-0.104,0.588-0.332,0.665-0.604c0.043-0.152-0.194-0.502-0.379-0.416c-4.908,2.291-10.494,1.037-15.703,0.981
					C23.279,38.575,22.566,39.505,23.268,39.519z"/>
				<path style="opacity:0.2063;fill:#FFFFFF;" d="M24.54,41.39c5.333,0.473,10.872,1.912,15.96-0.33
					c0.854-0.375-0.352-1.197-0.678-1.451c-0.708-0.543-1.438-1.055-2.191-1.533c-0.382-0.32-0.814-0.512-1.295-0.572
					c-5.027,0.878-9.746-0.072-14.748-0.633c-1.021-0.113,0.165,1.478,0.231,1.57C22.308,39.114,23.567,41.304,24.54,41.39z"/>
				<path style="opacity:0.2063;fill:#FFFFFF;" d="M25.235,38.956c3.106,0.225,6.186,0.604,9.298,0.74
					c2.608,0.113,4.665-0.307,6.978-1.342c0.269-0.119,0.649-0.303,0.532-0.662c-0.08-0.238-0.343-0.697-0.666-0.545
					c-5.046,2.355-10.424,1.031-15.708,0.652C24.937,37.747,24.514,38.903,25.235,38.956z"/>
				<path style="opacity:0.2063;fill:#FFFFFF;" d="M21.102,42.095c2.219,0.129,4.438,0.441,6.656,0.525
					c1.666,0.131,3.332,0.129,4.996-0.004c1.531-0.098,2.967-0.516,4.307-1.26c0.471-0.197,0.6-1.365-0.073-1.08
					c-2.323,0.979-4.162,1.217-6.681,1.314c-2.896,0.111-5.958-0.422-8.871-0.584C20.955,40.981,20.417,42.054,21.102,42.095z"/>
			</g>
		</g>
	</g>
	<g>
		<g>
			<g>
				<path style="opacity:0.2063;fill:#FFFFFF;" d="M35.631,42.099c-0.868,6.098-2.414,11.885-4.083,17.807
					c-0.316,1.115,2.605,0.205,2.807-0.496c1.696-5.922,3.314-11.727,4.25-17.822C38.792,40.358,35.728,41.421,35.631,42.099z"/>
				<path style="opacity:0.2063;fill:#FFFFFF;" d="M33.138,40.04c-0.855,6.105-2.406,11.896-4.066,17.824
					c-0.301,1.072,1.672-0.391,1.565-0.305c0.833-0.66,2.564-1.748,2.853-2.865c1.534-5.953,3.048-11.844,3.978-17.924
					c0.163-1.061-1.571,0.356-1.555,0.342C35.174,37.729,33.288,38.974,33.138,40.04z"/>
				<path style="opacity:0.2063;fill:#FFFFFF;" d="M32.704,36.479c-0.85,6.027-2.346,11.631-3.958,17.453
					c-0.267,0.971,1.054,0.857,1.292-0.016c1.629-5.957,3.131-11.793,3.995-17.902c0.037-0.27-0.565-0.536-0.77-0.465
					C32.925,35.668,32.747,36.166,32.704,36.479z"/>
				<path style="opacity:0.2063;fill:#FFFFFF;" d="M35.998,38.931c-0.879,6.096-2.428,11.896-4.078,17.822
					c-0.245,0.879,1.243,0.09,1.313,0.047c0.682-0.424,2.088-1.135,2.319-1.994c1.589-5.936,3.127-11.793,4.053-17.871
					c0.132-0.868-1.16-0.127-1.315-0.027C37.686,37.292,36.117,38.109,35.998,38.931z"/>
				<path style="opacity:0.2063;fill:#FFFFFF;" d="M34.543,36.391c-0.231,2.958-0.696,5.88-1.398,8.765
					c-0.763,2.9-1.557,5.793-2.382,8.678c-0.137,0.486,0.86,1.131,1.052,0.443c0.828-2.893,1.624-5.793,2.388-8.703
					c0.7-2.879,1.158-5.795,1.378-8.75C35.629,36.397,34.619,35.751,34.543,36.391z"/>
				<path style="opacity:0.2063;fill:#FFFFFF;" d="M31.29,38.573c-0.848,6.102-2.386,11.893-4.034,17.82
					c-0.144,0.512,0.343,0.84,0.754,0.486c0.653-0.564,1.429-1.717,1.646-2.557c1.531-5.904,2.994-11.723,3.841-17.767
					c0.068-0.48-0.375-0.818-0.776-0.451C32.154,36.623,31.398,37.804,31.29,38.573z"/>
			</g>
		</g>
	</g>
	<g>
		<g>
			<g>
				<path style="opacity:0.2063;fill:#FFFFFF;" d="M40.719,45.218c1.248,1.834,1.887,3.574,2.582,5.682
					c0.398,1.387,0.918,2.725,1.559,4.018c1.326,2.236,2.865,4.314,4.617,6.236c0.766,0.932,2.295-3.371,1.762-4.018
					c-2.158-2.611-4.141-5.059-5.529-8.166c-1.271-2.85-1.943-5.645-3.744-8.248c-0.543-0.785-0.949,0.914-0.978,1.041
					C40.816,42.552,40.198,44.452,40.719,45.218z"/>
				<path style="opacity:0.2063;fill:#FFFFFF;" d="M37.886,42.737c1.679,2.422,2.43,5.084,3.396,7.85
					c1.134,3.24,3.519,5.889,5.661,8.479c0.652,0.789,0.725-1.303,0.725-1.275c-0.004-0.967,0.164-2.754-0.49-3.574
					c-2.451-3.078-4.602-6.139-6.115-9.797c-0.924-2.227-1.848-4.033-3.297-5.924c-0.328-0.429-0.619,0.357-0.624,0.51
					C37.106,39.995,37.31,41.907,37.886,42.737z"/>
				<path style="opacity:0.2063;fill:#FFFFFF;" d="M38.233,40.382c1.564,2.299,2.234,4.828,3.169,7.426
					c1.127,3.125,3.486,5.652,5.566,8.156c0.322,0.389,1.396-0.01,0.914-0.594c-2.586-3.117-4.785-6.211-6.174-10.057
					c-0.716-1.979-1.242-3.613-2.442-5.355C39.048,39.64,37.884,39.868,38.233,40.382z"/>
				<path style="opacity:0.2063;fill:#FFFFFF;" d="M40.734,41.868c1.258,1.838,1.917,3.59,2.629,5.699
					c0.408,1.387,0.93,2.729,1.568,4.025c1.332,2.236,2.871,4.316,4.619,6.242c0.572,0.699,0.955-0.723,1.025-0.984
					c0.18-0.658,0.963-2.773,0.436-3.42c-2.127-2.607-4.096-5.059-5.479-8.141c-1.264-2.813-2-5.559-3.791-8.115
					c-0.568-0.809-0.91,1.063-0.921,1.129C40.684,39.165,40.182,41.06,40.734,41.868z"/>
				<path style="opacity:0.2063;fill:#FFFFFF;" d="M40.5,40.001c1.676,2.281,2.402,4.684,3.275,7.301
					c1.07,3.203,3.426,5.711,5.541,8.256c0.242,0.293,1.42,0.273,0.98-0.252c-2.662-3.186-4.855-6.34-6.154-10.33
					c-0.658-2.025-1.379-3.598-2.627-5.271C41.34,39.466,40.178,39.563,40.5,40.001z"/>
				<path style="opacity:0.2063;fill:#FFFFFF;" d="M36.145,42.185c1.41,2.053,2.379,5.094,3.261,7.557
					c1.15,3.207,3.487,5.852,5.589,8.449c0.217,0.266,0.789,0.086,0.871-0.221c0.117-0.445-0.119-1.215-0.396-1.568
					c-0.801-1.02-1.604-2.039-2.406-3.059c-1.922-2.576-3.309-5.408-4.161-8.488c-0.502-1.477-1.131-2.498-2.014-3.762
					C36.265,40.2,35.634,41.44,36.145,42.185z"/>
			</g>
		</g>
	</g>
	<g>
		<g>
			<g>
				<path style="opacity:0.2063;fill:#FFFFFF;" d="M43.689,44.048c4.154,1.396,8.494,2.262,12.809,2.98
					c2.914,0.486,5.746,0.549,8.646,0.021c0.637-0.209,1.227-0.5,1.768-0.877c1.018-0.809,1.443-1.863,1.283-3.17
					c0.113-0.881-3.137-0.588-3.525-0.137c-0.912,1.053-3.305,1.063-4.51,1.111c-2.055,0.082-4.268-0.572-6.262-0.961
					c-3.924-0.764-7.934-2.01-11.607-3.596c-0.895-0.387-0.297,1.33-0.258,1.439C42.285,41.558,42.85,43.765,43.689,44.048z"/>
				<path style="opacity:0.2063;fill:#FFFFFF;" d="M40.876,41.882c4.852,1.68,9.959,2.701,15.04,3.359
					c2.713,0.352,5.258,0.266,7.768-0.822c1.23-0.533,1.336-1.891,1.563-2.969c0.17-0.811-2.543-0.705-2.842-0.209
					c-0.186,0.313-0.371,0.621-0.557,0.934c0.15-0.109,0.301-0.219,0.451-0.33c-1.551,0.5-2.816,0.771-4.453,0.865
					c-2.193,0.127-4.51-0.43-6.648-0.813c-4.102-0.732-8.262-1.973-12.102-3.593c-0.85-0.356-0.103,1.28-0.1,1.286
					C39.411,40.304,40.032,41.589,40.876,41.882z"/>
				<path style="opacity:0.2063;fill:#FFFFFF;" d="M41.635,39.192c1.887,0.535,3.809,0.889,5.734,1.248
					c3.889,0.723,7.756,1.42,11.717,1.49c2.111,0.037,3.883-0.367,5.787-1.15c1.594-0.656,1.75-2.353,2.031-3.753
					c0.119-0.586-0.811-0.124-0.918,0.27c-1.656,6.071-11.953,3.396-15.811,2.681c-2.639-0.486-5.291-0.85-7.887-1.555
					C41.928,38.323,40.974,39.007,41.635,39.192z"/>
				<path style="opacity:0.2063;fill:#FFFFFF;" d="M43.396,40.724c4.836,1.689,9.938,2.697,15.004,3.363
					c2.107,0.275,4.127,0.135,6.199-0.207c0.65-0.102,1.264-0.34,1.834-0.713c0.988-0.787,1.459-1.82,1.418-3.105
					c0.166-0.797-2.012-1.268-2.371-1.389c-0.348-0.116-2.906-1.225-2.682-0.018c0.037,0.195,0.074,0.395,0.111,0.59
					c0.098-0.146,0.193-0.293,0.291-0.439c-3.496,1.742-7.861,0.463-11.453-0.303c-3.141-0.672-6.32-1.604-9.295-2.824
					c-0.882-0.361-0.459,1.223-0.398,1.476C42.211,37.806,42.6,40.446,43.396,40.724z"/>
				<path style="opacity:0.2063;fill:#FFFFFF;" d="M43.824,38.817c2.631,0.766,5.334,1.236,8.031,1.707
					c3.262,0.57,6.389,1.086,9.699,1.18c1.285,0.035,3.301-0.072,4.527-0.605c-0.02,0.008,1.412-0.443,1.658-0.844
					c0.904-1.473,0.703-0.939,0.83-2.758c0.053-0.779-1.244-0.95-1.273-0.161c-3.486,3.63-7.611,4.54-12.373,2.731
					c-1.518-0.285-3.037-0.545-4.563-0.779c-1.932-0.314-3.867-0.698-5.758-1.207C44.143,37.956,43.164,38.626,43.824,38.817z"/>
				<path style="opacity:0.2063;fill:#FFFFFF;" d="M39.571,41.569c5.573,1.783,11.64,2.996,17.483,3.121
					c1.611,0.035,4.746-0.029,5.926-1.404c1.238-1.443,1.172-1.377,1.568-3.232c0.088-0.414-0.316-0.984-0.506-0.391
					c-1.258,3.945-3.787,3.703-6.857,3.854c-2.396,0.119-4.791-0.367-7.143-0.754c-3.453-0.568-6.961-1.338-10.294-2.418
					C39.084,40.13,38.825,41.331,39.571,41.569z"/>
			</g>
		</g>
	</g>
	<g>
		<g>
			<circle style="fill:none;stroke:#231815;stroke-width:4;stroke-miterlimit:10;" cx="40.208" cy="38.632" r="29.833"/>
			<circle style="fill:none;stroke:#483431;stroke-width:4.7956;stroke-miterlimit:10;" cx="40.208" cy="38.632" r="18.084"/>
			<circle style="fill:none;stroke:#483431;stroke-width:4.299;stroke-miterlimit:10;" cx="40.208" cy="38.632" r="9.583"/>
			<circle style="fill:none;stroke:#483431;stroke-width:0.5683;stroke-miterlimit:10;" cx="40.208" cy="38.632" r="5.067"/>
			<g>
				<path style="fill:#654B42;stroke:#30231F;stroke-width:0.5;stroke-miterlimit:10;" d="M43.854,20.866
					c0,0-0.584-0.416-3.646-0.416s-3.646,0.416-3.646,0.416l-1-8.041c0,0,0.792-0.75,4.646-0.75c3.854,0,4.646,0.75,4.646,0.75
					L43.854,20.866z"/>
				<g>
					<rect x="37.333" y="11.971" style="fill:#342724;" width="0.5" height="4.5"/>
					<rect x="42.583" y="11.971" style="fill:#342724;" width="0.5" height="4.5"/>
					<rect x="38.383" y="11.971" style="fill:#342724;" width="0.5" height="4.5"/>
					<rect x="39.433" y="11.971" style="fill:#342724;" width="0.5" height="4.5"/>
					<rect x="40.483" y="11.971" style="fill:#342724;" width="0.5" height="4.5"/>
					<rect x="41.532" y="11.971" style="fill:#342724;" width="0.5" height="4.5"/>
				</g>
			</g>
			<g>
				<path style="fill:#654B42;stroke:#30231F;stroke-width:0.5;stroke-miterlimit:10;" d="M43.854,56.399
					c0,0-0.584,0.416-3.646,0.416s-3.646-0.416-3.646-0.416l-1,8.041c0,0,0.792,0.75,4.646,0.75c3.854,0,4.646-0.75,4.646-0.75
					L43.854,56.399z"/>
				<g>
					<rect x="37.333" y="60.796" style="fill:#342724;" width="0.5" height="4.5"/>
					<rect x="42.583" y="60.796" style="fill:#342724;" width="0.5" height="4.5"/>
					<rect x="38.383" y="60.796" style="fill:#342724;" width="0.5" height="4.5"/>
					<rect x="39.433" y="60.796" style="fill:#342724;" width="0.5" height="4.5"/>
					<rect x="40.483" y="60.796" style="fill:#342724;" width="0.5" height="4.5"/>
					<rect x="41.534" y="60.796" style="fill:#342724;" width="0.498" height="4.5"/>
				</g>
			</g>
			<g>
				<path style="fill:#654B42;stroke:#30231F;stroke-width:0.5;stroke-miterlimit:10;" d="M21.906,34.987
					c0,0-0.416,0.582-0.416,3.645s0.416,3.646,0.416,3.646l-8.041,1c0,0-0.75-0.791-0.75-4.646c0-3.854,0.75-4.645,0.75-4.645
					L21.906,34.987z"/>
				<g>
					<rect x="13.01" y="41.007" style="fill:#342724;" width="4.5" height="0.5"/>
					<rect x="13.01" y="35.757" style="fill:#342724;" width="4.5" height="0.5"/>
					<rect x="13.01" y="39.958" style="fill:#342724;" width="4.5" height="0.5"/>
					<rect x="13.01" y="38.907" style="fill:#342724;" width="4.5" height="0.5"/>
					<rect x="13.01" y="37.858" style="fill:#342724;" width="4.5" height="0.5"/>
					<rect x="13.01" y="36.808" style="fill:#342724;" width="4.5" height="0.5"/>
				</g>
			</g>
			<g>
				<path style="fill:#654B42;stroke:#30231F;stroke-width:0.5;stroke-miterlimit:10;" d="M58.51,34.987
					c0,0,0.416,0.582,0.416,3.645c0,3.064-0.416,3.646-0.416,3.646l8.041,1.002c0,0,0.75-0.793,0.75-4.648
					c0-3.854-0.75-4.645-0.75-4.645L58.51,34.987z"/>
				<g>
					<rect x="62.906" y="41.009" style="fill:#342724;" width="4.5" height="0.5"/>
					<rect x="62.906" y="35.757" style="fill:#342724;" width="4.5" height="0.5"/>
					<rect x="62.906" y="39.958" style="fill:#342724;" width="4.5" height="0.5"/>
					<rect x="62.906" y="38.907" style="fill:#342724;" width="4.5" height="0.5"/>
					<rect x="62.906" y="37.858" style="fill:#342724;" width="4.5" height="0.5"/>
					<rect x="62.906" y="36.808" style="fill:#342724;" width="4.5" height="0.5"/>
				</g>
			</g>
			<g>
				<path style="fill:#654B42;stroke:#30231F;stroke-width:0.5;stroke-miterlimit:10;" d="M30.488,22.97
					c0,0-0.707,0.118-2.872,2.284c-2.166,2.165-2.284,2.872-2.284,2.872l-6.393-4.979c0,0,0.03-1.09,2.755-3.815
					c2.726-2.726,3.816-2.755,3.816-2.755L30.488,22.97z"/>
				<g>
					
						<rect x="21.105" y="20.455" transform="matrix(0.7061 -0.7081 0.7081 0.7061 -9.8015 21.7934)" style="fill:#342724;" width="0.501" height="4.5"/>
					
						<rect x="24.818" y="16.742" transform="matrix(0.7071 -0.7071 0.7071 0.7071 -6.0877 23.2883)" style="fill:#342724;" width="0.5" height="4.501"/>
					
						<rect x="21.847" y="19.713" transform="matrix(0.7071 -0.7071 0.7071 0.7071 -9.0579 22.058)" style="fill:#342724;" width="0.5" height="4.5"/>
					
						<rect x="22.59" y="18.97" transform="matrix(0.7071 -0.7071 0.7071 0.7071 -8.3149 22.3655)" style="fill:#342724;" width="0.5" height="4.5"/>
					
						<rect x="23.332" y="18.228" transform="matrix(0.7071 -0.7071 0.7071 0.7071 -7.5727 22.6729)" style="fill:#342724;" width="0.5" height="4.5"/>
					
						<rect x="24.074" y="17.485" transform="matrix(0.7071 -0.7071 0.7071 0.7071 -6.8305 22.9803)" style="fill:#342724;" width="0.5" height="4.5"/>
				</g>
			</g>
			<g>
				<path style="fill:#654B42;stroke:#30231F;stroke-width:0.5;stroke-miterlimit:10;" d="M29.205,52.237
					c0,0-0.707-0.119-2.872-2.285c-2.165-2.164-2.284-2.871-2.284-2.871l-6.393,4.979c0,0,0.029,1.09,2.754,3.814
					c2.727,2.727,3.816,2.756,3.816,2.756L29.205,52.237z"/>
				<g>
					
						<rect x="19.822" y="50.251" transform="matrix(0.7071 0.7071 -0.7071 0.7071 43.0027 1.1843)" style="fill:#342724;" width="0.5" height="4.5"/>
					
						<rect x="23.534" y="53.964" transform="matrix(0.7071 0.7071 -0.7071 0.7071 46.7154 -0.3533)" style="fill:#342724;" width="0.5" height="4.5"/>
					
						<rect x="20.564" y="50.993" transform="matrix(0.7071 0.7071 -0.7071 0.7071 43.7449 0.8769)" style="fill:#342724;" width="0.5" height="4.5"/>
					
						<rect x="21.306" y="51.738" transform="matrix(0.7071 0.7071 -0.7071 0.7071 44.4884 0.57)" style="fill:#342724;" width="0.5" height="4.5"/>
					
						<rect x="22.048" y="52.48" transform="matrix(0.7071 0.7071 -0.7071 0.7071 45.2306 0.2626)" style="fill:#342724;" width="0.5" height="4.5"/>
					
						<rect x="22.791" y="53.222" transform="matrix(0.7071 0.7071 -0.7071 0.7071 45.9728 -0.0448)" style="fill:#342724;" width="0.5" height="4.5"/>
				</g>
			</g>
			<g>
				<path style="fill:#654B42;stroke:#30231F;stroke-width:0.5;stroke-miterlimit:10;" d="M51.213,51.53
					c0,0,0.707-0.119,2.871-2.285c2.166-2.164,2.285-2.871,2.285-2.871l6.393,4.979c0,0-0.029,1.09-2.754,3.814
					c-2.727,2.727-3.816,2.756-3.816,2.756L51.213,51.53z"/>
				<g>
					
						<rect x="60.096" y="49.544" transform="matrix(-0.7071 0.7071 -0.7071 -0.7071 139.6404 45.7469)" style="fill:#342724;" width="0.5" height="4.5"/>
					
						<rect x="56.383" y="53.257" transform="matrix(-0.7071 0.7071 -0.7071 -0.7071 135.9275 54.7107)" style="fill:#342724;" width="0.5" height="4.5"/>
					
						<rect x="59.354" y="50.286" transform="matrix(-0.7071 0.7071 -0.7071 -0.7071 138.8982 47.5387)" style="fill:#342724;" width="0.5" height="4.5"/>
					
						<rect x="58.611" y="51.031" transform="matrix(-0.7071 0.7071 -0.7071 -0.7071 138.1574 49.3339)" style="fill:#342724;" width="0.5" height="4.5"/>
					
						<rect x="57.869" y="51.773" transform="matrix(-0.7071 0.7071 -0.7071 -0.7071 137.4152 51.1257)" style="fill:#342724;" width="0.5" height="4.5"/>
					
						<rect x="57.127" y="52.515" transform="matrix(-0.7071 0.7071 -0.7071 -0.7071 136.673 52.9175)" style="fill:#342724;" width="0.5" height="4.5"/>
				</g>
			</g>
			<g>
				<path style="fill:#654B42;stroke:#30231F;stroke-width:0.5;stroke-miterlimit:10;" d="M55.085,28.021
					c0,0-0.119-0.707-2.285-2.873c-2.164-2.164-2.871-2.283-2.871-2.283l4.979-6.393c0,0,1.09,0.029,3.814,2.754
					c2.727,2.727,2.756,3.816,2.756,3.816L55.085,28.021z"/>
				<g>
					
						<rect x="55.099" y="16.638" transform="matrix(0.7071 0.7071 -0.7071 0.7071 29.5669 -33.6053)" style="fill:#342724;" width="0.5" height="4.5"/>
					
						<rect x="58.812" y="20.349" transform="matrix(0.7071 0.7071 -0.7071 0.7071 33.2791 -35.1435)" style="fill:#342724;" width="0.5" height="4.501"/>
					
						<rect x="55.841" y="17.38" transform="matrix(0.7071 0.7071 -0.7071 0.7071 30.309 -33.9127)" style="fill:#342724;" width="0.5" height="4.5"/>
					
						<rect x="56.585" y="18.122" transform="matrix(0.7071 0.7071 -0.7071 0.7071 31.0518 -34.2215)" style="fill:#342724;" width="0.5" height="4.5"/>
					
						<rect x="57.327" y="18.864" transform="matrix(0.7071 0.7071 -0.7071 0.7071 31.794 -34.529)" style="fill:#342724;" width="0.5" height="4.5"/>
					
						<rect x="58.069" y="19.607" transform="matrix(0.7071 0.7071 -0.7071 0.7071 32.5362 -34.8364)" style="fill:#342724;" width="0.5" height="4.5"/>
				</g>
			</g>
		</g>
		<g>
			<path style="fill:none;stroke:#483431;stroke-width:0.25;stroke-miterlimit:10;" d="M40.174,20.718
				c-9.987,0-18.083,8.097-18.083,18.082c0,9.99,8.095,18.085,18.083,18.085c9.988,0,18.085-8.095,18.085-18.085
				C58.259,28.814,50.162,20.718,40.174,20.718z M40.175,43.76c-6.449,0-6.449-10.001,0-10.001S46.624,43.76,40.175,43.76z"/>
			<path style="fill:none;stroke:#483431;stroke-width:0.5;stroke-miterlimit:10;" d="M40.174,43.953c0,4.311,0,8.621,0,12.932"/>
			<path style="fill:none;stroke:#483431;stroke-width:0.5;stroke-miterlimit:10;" d="M40.174,20.718c0,4.311,0,8.621,0,12.932"/>
			<path style="fill:none;stroke:#483431;stroke-width:0.5;stroke-miterlimit:10;" d="M35.159,38.801c-4.356,0-8.711,0-13.067,0"/>
			<path style="fill:none;stroke:#483431;stroke-width:0.5;stroke-miterlimit:10;" d="M58.258,38.801c-4.355,0-8.712,0-13.067,0"/>
			<path style="fill:none;stroke:#483431;stroke-width:0.5;stroke-miterlimit:10;" d="M35.235,39.671
				c-4.29,0.757-8.58,1.514-12.869,2.27"/>
			<path style="fill:none;stroke:#483431;stroke-width:0.5;stroke-miterlimit:10;" d="M57.983,35.661
				c-4.29,0.756-8.579,1.512-12.869,2.269"/>
			<path style="fill:none;stroke:#483431;stroke-width:0.5;stroke-miterlimit:10;" d="M35.333,40.563
				c-4.05,1.475-8.101,2.948-12.151,4.423"/>
			<path style="fill:none;stroke:#483431;stroke-width:0.5;stroke-miterlimit:10;" d="M57.168,32.616
				c-4.051,1.474-8.101,2.947-12.151,4.422"/>
			<path style="fill:none;stroke:#483431;stroke-width:0.5;stroke-miterlimit:10;" d="M35.713,41.376
				c-3.733,2.155-7.466,4.311-11.199,6.466"/>
			<path style="fill:none;stroke:#483431;stroke-width:0.5;stroke-miterlimit:10;" d="M55.836,29.759
				c-3.733,2.155-7.466,4.311-11.199,6.465"/>
			<path style="fill:none;stroke:#483431;stroke-width:0.5;stroke-miterlimit:10;" d="M36.229,42.112
				c-3.302,2.771-6.604,5.541-9.906,8.312"/>
			<path style="fill:none;stroke:#483431;stroke-width:0.5;stroke-miterlimit:10;" d="M54.028,27.177
				c-3.302,2.771-6.604,5.541-9.906,8.313"/>
			<path style="fill:none;stroke:#483431;stroke-width:0.5;stroke-miterlimit:10;" d="M36.864,42.747
				c-2.771,3.302-5.542,6.604-8.313,9.905"/>
			<path style="fill:none;stroke:#483431;stroke-width:0.5;stroke-miterlimit:10;" d="M51.8,24.948
				c-2.699,3.217-5.398,6.433-8.098,9.649"/>
			<path style="fill:none;stroke:#483431;stroke-width:0.5;stroke-miterlimit:10;" d="M37.599,43.262
				c-2.155,3.733-4.311,7.466-6.466,11.199"/>
			<path style="fill:none;stroke:#483431;stroke-width:0.5;stroke-miterlimit:10;" d="M49.218,23.14
				c-2.1,3.637-4.199,7.273-6.299,10.91"/>
			<path style="fill:none;stroke:#483431;stroke-width:0.5;stroke-miterlimit:10;" d="M38.414,43.642
				c-1.475,4.051-2.949,8.101-4.423,12.151"/>
			<path style="fill:none;stroke:#483431;stroke-width:0.5;stroke-miterlimit:10;" d="M46.361,21.808
				c-1.437,3.945-2.873,7.892-4.309,11.838"/>
			<path style="fill:none;stroke:#483431;stroke-width:0.5;stroke-miterlimit:10;" d="M39.281,43.874
				c-0.749,4.245-1.497,8.49-2.246,12.735"/>
			<path style="fill:none;stroke:#483431;stroke-width:0.5;stroke-miterlimit:10;" d="M43.316,20.991
				c-0.749,4.246-1.497,8.49-2.246,12.735"/>
			<path style="fill:none;stroke:#483431;stroke-width:0.5;stroke-miterlimit:10;" d="M41.068,43.875
				c0.749,4.245,1.497,8.49,2.246,12.735"/>
			<path style="fill:none;stroke:#483431;stroke-width:0.5;stroke-miterlimit:10;" d="M37.033,20.993
				c0.749,4.244,1.497,8.49,2.246,12.734"/>
			<path style="fill:none;stroke:#483431;stroke-width:0.5;stroke-miterlimit:10;" d="M42.75,43.263
				c2.155,3.733,4.311,7.466,6.466,11.199"/>
			<path style="fill:none;stroke:#483431;stroke-width:0.5;stroke-miterlimit:10;" d="M31.131,23.141
				c2.1,3.637,4.199,7.272,6.299,10.909"/>
			<path style="fill:none;stroke:#483431;stroke-width:0.5;stroke-miterlimit:10;" d="M41.937,43.643
				c1.474,4.051,2.948,8.101,4.423,12.151"/>
			<path style="fill:none;stroke:#483431;stroke-width:0.5;stroke-miterlimit:10;" d="M33.988,21.808
				c1.437,3.946,2.873,7.893,4.309,11.838"/>
			<path style="fill:none;stroke:#483431;stroke-width:0.5;stroke-miterlimit:10;" d="M43.485,42.748
				c2.771,3.302,5.542,6.604,8.313,9.906"/>
			<path style="fill:none;stroke:#483431;stroke-width:0.5;stroke-miterlimit:10;" d="M28.549,24.948
				c2.771,3.303,5.542,6.604,8.313,9.906"/>
			<path style="fill:none;stroke:#483431;stroke-width:0.5;stroke-miterlimit:10;" d="M44.12,42.113
				c3.302,2.771,6.604,5.542,9.906,8.313"/>
			<path style="fill:none;stroke:#483431;stroke-width:0.5;stroke-miterlimit:10;" d="M26.32,27.178
				c3.302,2.771,6.604,5.542,9.906,8.313"/>
			<path style="fill:none;stroke:#483431;stroke-width:0.5;stroke-miterlimit:10;" d="M44.635,41.378
				c3.733,2.155,7.466,4.311,11.199,6.466"/>
			<path style="fill:none;stroke:#483431;stroke-width:0.5;stroke-miterlimit:10;" d="M24.512,29.76
				c3.733,2.155,7.466,4.311,11.199,6.466"/>
			<path style="fill:none;stroke:#483431;stroke-width:0.5;stroke-miterlimit:10;" d="M45.015,40.564
				c4.051,1.475,8.101,2.948,12.151,4.423"/>
			<path style="fill:none;stroke:#483431;stroke-width:0.5;stroke-miterlimit:10;" d="M23.18,32.616
				c4.05,1.475,8.101,2.949,12.151,4.424"/>
			<path style="fill:none;stroke:#483431;stroke-width:0.5;stroke-miterlimit:10;" d="M45.247,39.696
				c4.245,0.749,8.49,1.497,12.735,2.246"/>
			<path style="fill:none;stroke:#483431;stroke-width:0.5;stroke-miterlimit:10;" d="M22.364,35.661
				c4.245,0.749,8.49,1.498,12.735,2.246"/>
		</g>
	</g>
</g>
</svg>
