<?xml version="1.0" encoding="iso-8859-1"?>
<!-- Generator: Adobe Illustrator 16.0.0, SVG Export Plug-In . SVG Version: 6.00 Build 0)  -->
<!DOCTYPE svg PUBLIC "-//W3C//DTD SVG 1.1//EN" "http://www.w3.org/Graphics/SVG/1.1/DTD/svg11.dtd">
<svg version="1.1" id="&#x56FE;&#x5C42;_1" xmlns="http://www.w3.org/2000/svg" xmlns:xlink="http://www.w3.org/1999/xlink" x="0px"
	 y="0px" width="80px" height="80px" viewBox="0 0 80 80" style="enable-background:new 0 0 80 80;" xml:space="preserve">
<image style="display:none;overflow:visible;" width="342" height="240" xlink:href="&#x5FAE;&#x4FE1;&#x622A;&#x56FE;_20190702160532.png"  transform="matrix(1.0071 0 0 1.0071 -92.208 -116.415)">
</image>
<g>
	
		<rect x="35.486" y="35.585" style="fill:#FFFBE8;stroke:#110000;stroke-width:1.7491;stroke-miterlimit:10;" width="9.917" height="39.098"/>
	<g>
		<rect x="35.777" y="36.168" style="fill:#862300;" width="9.333" height="3.432"/>
		<rect x="35.777" y="41.918" style="fill:#862300;" width="9.333" height="3.432"/>
		<rect x="35.777" y="47.668" style="fill:#862300;" width="9.333" height="3.432"/>
		<rect x="35.777" y="53.418" style="fill:#862300;" width="9.333" height="3.432"/>
		<rect x="35.777" y="59.168" style="fill:#862300;" width="9.333" height="3.432"/>
		<rect x="35.777" y="64.918" style="fill:#862300;" width="9.333" height="3.432"/>
		<rect x="35.777" y="70.668" style="fill:#862300;" width="9.333" height="3.432"/>
	</g>
	
		<rect x="19.792" y="11.384" style="fill:#908D88;stroke:#231815;stroke-width:1.829;stroke-miterlimit:10;" width="41.304" height="23.166"/>
	<polygon style="fill:#908D88;stroke:#231815;stroke-width:1.829;stroke-miterlimit:10;" points="30.958,34.55 29.625,37.884 
		19.792,37.884 19.792,34.55 	"/>
	<polygon style="fill:#908D88;stroke:#231815;stroke-width:1.829;stroke-miterlimit:10;" points="49.93,34.55 51.262,37.884 
		61.096,37.884 61.096,34.55 	"/>
	<rect x="31.11" y="8.384" style="fill:#908D88;stroke:#231815;stroke-miterlimit:10;" width="18.667" height="3"/>
</g>
</svg>
